<svg width="64" height="64" viewBox="0 0 64 64" fill="none" xmlns="http://www.w3.org/2000/svg">
<path d="M60.5713 53.373L58.9484 51.7825C58.3361 51.1823 57.9679 50.4246 57.8602 49.6295C57.7527 48.8349 57.9062 48.007 58.3367 47.2657C59.6601 44.9876 60.6969 42.5206 61.3968 39.9145C62.074 37.3934 62.4351 34.7402 62.4351 32C62.4351 27.8729 61.6161 23.9412 60.1321 20.3587C58.5916 16.6398 56.33 13.2889 53.5206 10.4795C50.7111 7.67008 47.3603 5.4085 43.6412 3.86791C40.0587 2.38399 36.1272 1.56488 32.0001 1.56488C27.8729 1.56488 23.9413 2.38399 20.3588 3.86791C16.6397 5.4085 13.289 7.67008 10.4794 10.4795C7.66997 13.2889 5.40838 16.6398 3.86791 20.3587C2.38387 23.9412 1.56488 27.8729 1.56488 32C1.56488 36.1271 2.38387 40.0588 3.86791 43.6413C5.40838 47.3602 7.66997 50.7111 10.4794 53.5205C13.289 56.3299 16.6397 58.5915 20.3588 60.1321C23.9413 61.616 27.8729 62.4351 32.0001 62.4351C34.7387 62.4351 37.3904 62.0743 39.9102 61.3979C42.5152 60.6987 44.981 59.6632 47.2582 58.3413C47.9897 57.9166 48.8023 57.7601 49.5831 57.8578C50.3666 57.9559 51.1176 58.309 51.7231 58.9023L53.4668 60.6113C53.8895 61.0255 54.4428 61.2295 54.9944 61.2244C55.5445 61.2193 56.0935 61.005 56.5089 60.5824L60.6004 56.4225C60.811 56.2083 60.9674 55.9749 61.0688 55.7241C61.1717 55.4691 61.2221 55.1912 61.2193 54.8913C61.2167 54.5932 61.1614 54.3175 61.0542 54.0657C60.9476 53.8151 60.7864 53.5838 60.5713 53.373ZM39.8174 15.4221L49.9072 21.2473C50.1372 21.3801 50.2689 21.6082 50.2689 21.8739V42.1261C50.2689 42.3918 50.1372 42.6199 49.9072 42.7527L32.3617 52.8825C32.1316 53.0153 31.8684 53.0153 31.6383 52.8825L14.0928 42.7527C13.8628 42.6199 13.7311 42.3918 13.7311 42.1261V21.8739C13.7311 21.6082 13.8628 21.3801 14.0928 21.2473L28.4098 12.9814L30.0298 7.74173C30.1002 7.51336 30.2171 7.31121 30.3754 7.14012C30.5327 6.97011 30.7249 6.83864 30.9474 6.75044V6.7473C31.1695 6.65933 31.3992 6.62357 31.6296 6.63964C31.8601 6.65571 32.0839 6.72373 32.2944 6.84311L39.8577 11.138C40.1776 11.3198 40.4122 11.598 40.5399 11.9206H40.5429C40.6697 12.241 40.6889 12.6038 40.5795 12.9573L39.8174 15.4221ZM27.7838 15.0067L27.7836 15.0068L26.9694 17.6404L27.7838 15.0067ZM37.9951 16.0336L38.1482 15.5386L39.088 12.4989L36.0089 22.4572L37.9951 16.0336ZM36.0061 22.46C36.005 22.4598 36.0055 22.4597 36.0061 22.46V22.46ZM36.0061 22.4597C36.007 22.46 36.0069 22.4597 36.0068 22.4595L36.0061 22.4597Z" fill="#F16F70"/>
<path d="M60.0426 50.67L61.6654 52.2605C62.028 52.6158 62.3034 53.0146 62.4906 53.4544C62.6773 53.8929 62.7733 54.3685 62.778 54.8791C62.7826 55.3881 62.6955 55.864 62.5174 56.3048C62.3379 56.7494 62.0693 57.1541 61.7129 57.5166L57.6215 61.6766C56.9053 62.4048 55.9578 62.7744 55.0066 62.7831C54.0567 62.7918 53.103 62.4394 52.3727 61.7238L50.629 60.0148C50.2784 59.6711 49.8448 59.4669 49.3935 59.4104C48.9396 59.3536 48.4666 59.4447 48.0406 59.6922C45.6433 61.0838 43.0503 62.1732 40.3138 62.9077C37.6601 63.62 34.8728 64 32.0001 64C27.6708 64 23.5385 63.1374 19.7658 61.5747C15.845 59.9505 12.3201 57.5741 9.37307 54.6269C6.42589 51.6798 4.0494 48.1549 2.42531 44.2341C0.862489 40.4615 0 36.3291 0 32C0 27.6709 0.862489 23.5385 2.42531 19.7659C4.0494 15.8451 6.42589 12.3202 9.37307 9.37306C12.3201 6.42588 15.845 4.04951 19.7658 2.42531C23.5385 0.862608 27.6708 0 32.0001 0C36.3292 0 40.4615 0.862608 44.2342 2.42531C48.155 4.04951 51.6799 6.42588 54.6269 9.37306C57.5741 12.3202 59.9506 15.8451 61.5747 19.7659C63.1375 23.5385 64 27.6709 64 32C64 34.8746 63.6196 37.6631 62.9066 40.318C62.1712 43.0559 61.0806 45.6501 59.6876 48.0481C59.4353 48.4825 59.3446 48.9635 59.4066 49.4217C59.4686 49.8792 59.6837 50.3183 60.0426 50.67ZM39.8174 15.4221L49.9072 21.2473C50.1372 21.3801 50.2689 21.6082 50.2689 21.8739V42.1261C50.2689 42.3918 50.1372 42.6199 49.9072 42.7527L32.3617 52.8825C32.1316 53.0153 31.8684 53.0153 31.6383 52.8825L14.0928 42.7527C13.8628 42.6199 13.7311 42.3918 13.7311 42.1261V21.8739C13.7311 21.6082 13.8628 21.3801 14.0928 21.2473L28.4098 12.9814L30.0298 7.74172C30.1002 7.51336 30.2171 7.31121 30.3754 7.14011C30.5327 6.9701 30.7249 6.83864 30.9474 6.75043V6.74729C31.1695 6.65933 31.3992 6.62356 31.6296 6.63963C31.8601 6.6557 32.0839 6.72373 32.2944 6.84311L39.8577 11.138C40.1776 11.3198 40.4122 11.598 40.5399 11.9206H40.5429C40.6697 12.241 40.6889 12.6038 40.5795 12.9572L39.8174 15.4221ZM27.7838 15.0067L16.9823 21.2428C16.7522 21.3756 16.6205 21.6038 16.6205 21.8695C16.6205 22.135 16.7522 22.3632 16.9823 22.496L31.6383 30.9576C31.8684 31.0905 32.1316 31.0905 32.3617 30.9576L47.0177 22.496C47.2478 22.3632 47.3795 22.135 47.3795 21.8695C47.3795 21.6038 47.2478 21.3756 47.0177 21.2428L40.4137 17.4299L39.381 16.8336L37.5 22.9167C37.4281 23.1491 37.3112 23.3528 37.1535 23.5224C36.9958 23.6923 36.802 23.8238 36.5766 23.9122C36.3514 24.0004 36.1201 24.0358 35.89 24.0185C35.6599 24.0014 35.4358 23.9313 35.2244 23.8094L27.6802 19.4537C27.3627 19.2704 27.1308 18.9925 27.0049 18.6713C26.8796 18.3515 26.8611 17.9907 26.9694 17.6404L27.7838 15.0067ZM37.9951 16.0336L38.1482 15.5385L39.088 12.4989L39.0882 12.4954L39.0876 12.4951L31.5246 8.2004L31.5221 8.20209L31.5213 8.20004L28.4597 18.1028C28.4602 18.1041 28.4602 18.1015 28.4626 18.1028L36.0066 22.4585L36.0089 22.4572L37.9951 16.0336ZM31.5251 8.19883L31.5254 8.19822C31.5242 8.19822 31.5245 8.19846 31.5246 8.19895L31.5251 8.19883ZM36.0106 22.4589L36.0099 22.4587C36.0097 22.4596 36.0096 22.46 36.0106 22.4589ZM36.0106 22.4589C36.0116 22.4578 36.0109 22.4584 36.0099 22.4587L36.0106 22.4589ZM36.0061 22.46C36.005 22.4598 36.0055 22.4597 36.0061 22.46V22.46ZM36.0061 22.4597C36.007 22.46 36.0069 22.4597 36.0068 22.4595L36.0061 22.4597ZM31.5183 8.1975C31.5164 8.19967 31.5177 8.19871 31.5192 8.19822C31.5193 8.19713 31.5198 8.19593 31.5183 8.1975ZM31.5257 8.19822L31.5251 8.19883C31.5263 8.19846 31.5275 8.19834 31.5257 8.19822ZM30.9146 32.2069L16.2636 23.7481C16.0335 23.6152 15.7702 23.6153 15.54 23.7481C15.31 23.8809 15.1783 24.1089 15.1783 24.3746V41.298C15.1783 41.5637 15.31 41.7917 15.54 41.9245L30.1912 50.3834C30.4213 50.5162 30.6846 50.5162 30.9146 50.3833C31.1447 50.2505 31.2764 50.0223 31.2764 49.7568V32.8335C31.2764 32.5679 31.1447 32.3397 30.9146 32.2069ZM47.7364 23.7481L33.0854 32.2069C32.8553 32.3397 32.7236 32.5679 32.7236 32.8335V49.7568C32.7236 50.0223 32.8553 50.2505 33.0854 50.3833C33.3154 50.5162 33.5787 50.5162 33.8088 50.3834L48.46 41.9245C48.69 41.7917 48.8217 41.5636 48.8217 41.298V24.3746C48.8217 24.1089 48.69 23.8809 48.46 23.7481C48.2298 23.6153 47.9665 23.6152 47.7364 23.7481ZM60.5713 53.373L58.9484 51.7825C58.3361 51.1823 57.9679 50.4246 57.8602 49.6295C57.7527 48.8349 57.9062 48.007 58.3367 47.2657C59.6601 44.9876 60.6969 42.5206 61.3968 39.9145C62.074 37.3934 62.4351 34.7402 62.4351 32C62.4351 27.8729 61.6161 23.9412 60.1321 20.3587C58.5916 16.6398 56.33 13.2889 53.5206 10.4795C50.711 7.67007 47.3603 5.40849 43.6412 3.8679C40.0587 2.38398 36.1272 1.56487 32.0001 1.56487C27.8729 1.56487 23.9413 2.38398 20.3588 3.8679C16.6397 5.40849 13.289 7.67007 10.4794 10.4795C7.66997 13.2889 5.40838 16.6398 3.86791 20.3587C2.38387 23.9412 1.56488 27.8729 1.56488 32C1.56488 36.1271 2.38387 40.0588 3.86791 43.6413C5.40838 47.3602 7.66997 50.7111 10.4794 53.5205C13.289 56.3299 16.6397 58.5915 20.3588 60.1321C23.9413 61.616 27.8729 62.4351 32.0001 62.4351C34.7387 62.4351 37.3904 62.0743 39.9102 61.3979C42.5152 60.6987 44.981 59.6632 47.2582 58.3413C47.9897 57.9165 48.8023 57.7601 49.5831 57.8578C50.3666 57.9559 51.1176 58.309 51.7231 58.9023L53.4668 60.6113C53.8895 61.0255 54.4428 61.2295 54.9944 61.2244C55.5445 61.2193 56.0935 61.005 56.5089 60.5824L60.6004 56.4225C60.811 56.2083 60.9674 55.9749 61.0688 55.7241C61.1717 55.4691 61.2221 55.1912 61.2193 54.8913C61.2167 54.5932 61.1614 54.3175 61.0542 54.0657C60.9476 53.8151 60.7864 53.5838 60.5713 53.373Z" fill="#1A1A1A"/>
<path fill-rule="evenodd" clip-rule="evenodd" d="M16.9823 22.4959L31.6382 30.9577C31.8684 31.0905 32.1317 31.0905 32.3618 30.9577L47.0178 22.4959C47.2478 22.3631 47.3795 22.135 47.3795 21.8694C47.3795 21.6037 47.2478 21.3756 47.0178 21.2428L40.4138 17.4299L39.3809 16.8337L37.5001 22.9167C37.4282 23.149 37.3112 23.3526 37.1536 23.5224C36.9958 23.6922 36.802 23.8239 36.5767 23.9122C36.3514 24.0005 36.1202 24.0358 35.89 24.0185C35.6599 24.0014 35.4358 23.9314 35.2244 23.8094L27.6803 19.4537C27.3627 19.2704 27.131 18.9925 27.0049 18.6713C26.8796 18.3515 26.8612 17.9908 26.9694 17.6404L27.7837 15.0066L16.9823 21.2428C16.7522 21.3756 16.6205 21.6037 16.6205 21.8694C16.6205 22.135 16.7522 22.3631 16.9823 22.4959ZM39.0876 12.495L31.5246 8.20037L31.5221 8.20206L31.5214 8.20001L29.7718 13.8587L28.4597 18.1028C28.4602 18.1041 28.4602 18.1015 28.4626 18.1029L36.0066 22.4584L36.0089 22.4571L39.088 12.4988L39.0882 12.4954L39.0876 12.495ZM31.5251 8.1988L31.5255 8.1982C31.5243 8.1982 31.5244 8.19844 31.5246 8.1988H31.5251ZM36.0061 22.4599C36.005 22.4598 36.0056 22.4597 36.0061 22.4599V22.4599ZM36.0062 22.4597C36.0071 22.4599 36.0069 22.4597 36.0067 22.4594L36.0062 22.4597ZM31.5183 8.19759C31.5164 8.19965 31.5177 8.19868 31.5192 8.19808C31.5193 8.19711 31.5198 8.1959 31.5183 8.19759ZM31.5257 8.1982L31.5251 8.1988C31.5263 8.19844 31.5276 8.19832 31.5257 8.1982ZM36.0106 22.4588C36.0117 22.4578 36.0109 22.4582 36.0101 22.4587C36.0097 22.4596 36.0096 22.4599 36.0106 22.4588ZM36.0061 22.4599C36.005 22.4598 36.0056 22.4597 36.0061 22.4599V22.4599ZM36.0062 22.4597C36.0071 22.4599 36.0069 22.4597 36.0067 22.4594L36.0062 22.4597ZM30.9147 32.2068L16.2636 23.748C16.0335 23.6152 15.7701 23.6152 15.54 23.748C15.31 23.8809 15.1783 24.1089 15.1783 24.3746V41.298C15.1783 41.5636 15.31 41.7917 15.54 41.9245L30.1911 50.3834C30.4213 50.5161 30.6846 50.5161 30.9147 50.3832C31.1447 50.2504 31.2764 50.0223 31.2764 49.7566V32.8335C31.2764 32.5679 31.1447 32.3397 30.9147 32.2068ZM47.7365 23.748L33.0854 32.2068C32.8553 32.3397 32.7236 32.5679 32.7236 32.8335V49.7566C32.7236 50.0223 32.8553 50.2504 33.0854 50.3832C33.3154 50.5161 33.5787 50.5161 33.8089 50.3834L48.46 41.9245C48.6901 41.7917 48.8218 41.5636 48.8218 41.298V24.3746C48.8218 24.1089 48.6901 23.8809 48.46 23.748C48.2299 23.6152 47.9665 23.6152 47.7365 23.748Z" fill="white"/>
</svg>
