<svg width="33" height="32" viewBox="0 0 33 32" fill="none" xmlns="http://www.w3.org/2000/svg">
<rect x="0.25" width="32" height="32" rx="16" fill="#8F9098"/>
<path fill-rule="evenodd" clip-rule="evenodd" d="M13.925 23.34L10.925 21.196C10.104 20.61 9.693 20.316 9.472 19.886C9.251 19.456 9.25 18.95 9.25 17.942V14.059C9.25 13.737 9.25 13.467 9.257 13.234L15.25 17.514V24.231C14.893 24.031 14.477 23.734 13.925 23.34ZM17.25 24.23C17.607 24.03 18.023 23.732 18.575 23.338L21.575 21.195C22.396 20.609 22.807 20.315 23.028 19.885C23.249 19.455 23.25 18.95 23.25 17.942V14.059C23.25 13.737 23.25 13.467 23.243 13.234L17.25 17.514V24.23ZM22.378 11.393L16.25 15.771L10.122 11.394C10.334 11.226 10.597 11.038 10.925 10.804L13.925 8.66101C15.048 7.85901 15.61 7.45801 16.25 7.45801C16.89 7.45801 17.452 7.85801 18.575 8.66101L21.575 10.804C21.904 11.038 22.166 11.225 22.378 11.393Z" fill="white"/>
</svg>
