<svg width="33" height="32" viewBox="0 0 33 32" fill="none" xmlns="http://www.w3.org/2000/svg">
<rect x="0.75" width="32" height="32" rx="16" fill="#10B97C"/>
<path fill-rule="evenodd" clip-rule="evenodd" d="M16.75 25C17.9319 25 19.1022 24.7672 20.1942 24.3149C21.2861 23.8626 22.2782 23.1997 23.114 22.364C23.9497 21.5282 24.6126 20.5361 25.0649 19.4442C25.5172 18.3522 25.75 17.1819 25.75 16C25.75 14.8181 25.5172 13.6478 25.0649 12.5558C24.6126 11.4639 23.9497 10.4718 23.114 9.63604C22.2782 8.80031 21.2861 8.13738 20.1942 7.68508C19.1022 7.23279 17.9319 7 16.75 7C14.3631 7 12.0739 7.94821 10.386 9.63604C8.69821 11.3239 7.75 13.6131 7.75 16C7.75 18.3869 8.69821 20.6761 10.386 22.364C12.0739 24.0518 14.3631 25 16.75 25ZM16.518 19.64L21.518 13.64L19.982 12.36L15.682 17.519L13.457 15.293L12.043 16.707L15.043 19.707L15.817 20.481L16.518 19.64Z" fill="white"/>
</svg>
