<svg width="33" height="32" viewBox="0 0 33 32" fill="none" xmlns="http://www.w3.org/2000/svg">
<rect x="0.75" width="32" height="32" rx="16" fill="#E43234"/>
<path fill-rule="evenodd" clip-rule="evenodd" d="M25.75 16C25.75 17.1819 25.5172 18.3522 25.0649 19.4442C24.6126 20.5361 23.9497 21.5282 23.114 22.364C22.2782 23.1997 21.2861 23.8626 20.1942 24.3149C19.1022 24.7672 17.9319 25 16.75 25C15.5681 25 14.3978 24.7672 13.3058 24.3149C12.2139 23.8626 11.2218 23.1997 10.386 22.364C9.55031 21.5282 8.88738 20.5361 8.43508 19.4442C7.98279 18.3522 7.75 17.1819 7.75 16C7.75 13.6131 8.69821 11.3239 10.386 9.63604C12.0739 7.94821 14.3631 7 16.75 7C19.1369 7 21.4261 7.94821 23.114 9.63604C24.8018 11.3239 25.75 13.6131 25.75 16ZM11.336 20L12.043 19.293L15.336 16L12.043 12.707L11.336 12L12.75 10.586L13.457 11.293L16.75 14.586L20.043 11.293L20.75 10.586L22.164 12L21.457 12.707L18.164 16L21.457 19.293L22.164 20L20.75 21.414L20.043 20.707L16.75 17.414L13.457 20.707L12.75 21.414L11.336 20Z" fill="white"/>
</svg>
