<svg width="25" height="25" viewBox="0 0 25 25" fill="none" xmlns="http://www.w3.org/2000/svg">
<path d="M12.7356 6.89603C12.7356 6.65603 12.7356 6.53703 12.8156 6.46303C12.8976 6.38903 13.0096 6.39803 13.2356 6.41703C14.243 6.50116 15.2127 6.83846 16.0549 7.39759C16.8971 7.95672 17.5843 8.71957 18.0528 9.61531C18.5214 10.5111 18.756 11.5107 18.7349 12.5213C18.7138 13.532 18.4377 14.5209 17.9323 15.3963C17.4268 16.2718 16.7084 17.0053 15.8436 17.5288C14.9789 18.0524 13.9959 18.3489 12.9859 18.391C11.9759 18.4331 10.9716 18.2193 10.0663 17.7695C9.16106 17.3196 8.3841 16.6484 7.8076 15.818C7.6776 15.632 7.6136 15.539 7.6376 15.432C7.6616 15.325 7.7656 15.266 7.9726 15.146L12.4856 12.54C12.6076 12.47 12.6686 12.435 12.7016 12.377C12.7356 12.319 12.7356 12.248 12.7356 12.107V6.89603Z" fill="#FF9500"/>
<path fill-rule="evenodd" clip-rule="evenodd" d="M12.7356 4.39603C8.31732 4.39603 4.7356 7.97775 4.7356 12.396C4.7356 16.8143 8.31732 20.396 12.7356 20.396C17.1539 20.396 20.7356 16.8143 20.7356 12.396C20.7356 7.97775 17.1539 4.39603 12.7356 4.39603ZM2.7356 12.396C2.7356 6.87318 7.21275 2.39603 12.7356 2.39603C18.2584 2.39603 22.7356 6.87318 22.7356 12.396C22.7356 17.9189 18.2584 22.396 12.7356 22.396C7.21275 22.396 2.7356 17.9189 2.7356 12.396Z" fill="#FF9500"/>
</svg>
