<svg width="88" height="116" viewBox="0 0 88 116" fill="none" xmlns="http://www.w3.org/2000/svg">
<path d="M72.5713 53.373L70.9484 51.7825C70.3361 51.1823 69.9679 50.4246 69.8602 49.6295C69.7527 48.8349 69.9062 48.007 70.3367 47.2657C71.6601 44.9876 72.6969 42.5206 73.3968 39.9145C74.074 37.3934 74.4351 34.7402 74.4351 32C74.4351 27.8729 73.6161 23.9412 72.1321 20.3587C70.5916 16.6398 68.33 13.2889 65.5206 10.4795C62.7111 7.67008 59.3603 5.4085 55.6412 3.86791C52.0587 2.38399 48.1272 1.56488 44.0001 1.56488C39.8729 1.56488 35.9413 2.38399 32.3588 3.86791C28.6397 5.4085 25.289 7.67008 22.4794 10.4795C19.67 13.2889 17.4084 16.6398 15.8679 20.3587C14.3839 23.9412 13.5649 27.8729 13.5649 32C13.5649 36.1271 14.3839 40.0588 15.8679 43.6413C17.4084 47.3602 19.67 50.7111 22.4794 53.5205C25.289 56.3299 28.6397 58.5915 32.3588 60.1321C35.9413 61.616 39.8729 62.4351 44.0001 62.4351C46.7387 62.4351 49.3904 62.0743 51.9102 61.3979C54.5152 60.6987 56.981 59.6632 59.2582 58.3413C59.9897 57.9166 60.8023 57.7601 61.5831 57.8578C62.3666 57.9559 63.1176 58.309 63.7231 58.9023L65.4668 60.6113C65.8895 61.0255 66.4428 61.2295 66.9944 61.2244C67.5445 61.2193 68.0935 61.005 68.5089 60.5824L72.6004 56.4225C72.811 56.2083 72.9674 55.9749 73.0688 55.7241C73.1717 55.4691 73.2221 55.1912 73.2193 54.8913C73.2167 54.5932 73.1614 54.3175 73.0542 54.0657C72.9476 53.8151 72.7864 53.5838 72.5713 53.373ZM51.8174 15.4221L61.9072 21.2473C62.1372 21.3801 62.2689 21.6082 62.2689 21.8739V42.1261C62.2689 42.3918 62.1372 42.6199 61.9072 42.7527L44.3617 52.8825C44.1316 53.0153 43.8684 53.0153 43.6383 52.8825L26.0928 42.7527C25.8628 42.6199 25.7311 42.3918 25.7311 42.1261V21.8739C25.7311 21.6082 25.8628 21.3801 26.0928 21.2473L40.4098 12.9814L42.0298 7.74173C42.1002 7.51336 42.2171 7.31121 42.3754 7.14012C42.5327 6.97011 42.7249 6.83864 42.9474 6.75044V6.7473C43.1695 6.65933 43.3992 6.62357 43.6296 6.63964C43.8601 6.65571 44.0839 6.72373 44.2944 6.84311L51.8577 11.138C52.1776 11.3198 52.4122 11.598 52.5399 11.9206H52.5429C52.6697 12.241 52.6889 12.6038 52.5795 12.9573L51.8174 15.4221ZM39.7838 15.0067L39.7836 15.0068L38.9694 17.6404L39.7838 15.0067ZM49.9951 16.0336L50.1482 15.5386L51.088 12.4989L48.0089 22.4572L49.9951 16.0336ZM48.0061 22.46C48.005 22.4598 48.0055 22.4597 48.0061 22.46V22.46ZM48.0061 22.4597C48.007 22.46 48.0069 22.4597 48.0068 22.4595L48.0061 22.4597Z" fill="#F16F70"/>
<path d="M72.0426 50.67L73.6654 52.2605C74.028 52.6158 74.3034 53.0146 74.4906 53.4544C74.6773 53.8929 74.7733 54.3685 74.778 54.8791C74.7826 55.3881 74.6955 55.864 74.5174 56.3048C74.3379 56.7494 74.0693 57.1541 73.7129 57.5166L69.6215 61.6766C68.9053 62.4048 67.9578 62.7744 67.0066 62.7831C66.0567 62.7918 65.103 62.4394 64.3727 61.7238L62.629 60.0148C62.2784 59.6711 61.8448 59.4669 61.3935 59.4104C60.9396 59.3536 60.4666 59.4447 60.0406 59.6922C57.6433 61.0838 55.0503 62.1732 52.3138 62.9077C49.6601 63.62 46.8728 64 44.0001 64C39.6708 64 35.5385 63.1374 31.7658 61.5747C27.845 59.9505 24.3201 57.5741 21.3731 54.6269C18.4259 51.6798 16.0494 48.1549 14.4253 44.2341C12.8625 40.4615 12 36.3291 12 32C12 27.6709 12.8625 23.5385 14.4253 19.7659C16.0494 15.8451 18.4259 12.3202 21.3731 9.37306C24.3201 6.42588 27.845 4.04951 31.7658 2.42531C35.5385 0.862608 39.6708 0 44.0001 0C48.3292 0 52.4615 0.862608 56.2342 2.42531C60.155 4.04951 63.6799 6.42588 66.6269 9.37306C69.5741 12.3202 71.9506 15.8451 73.5747 19.7659C75.1375 23.5385 76 27.6709 76 32C76 34.8746 75.6196 37.6631 74.9066 40.318C74.1712 43.0559 73.0806 45.6501 71.6876 48.0481C71.4353 48.4825 71.3446 48.9635 71.4066 49.4217C71.4686 49.8792 71.6837 50.3183 72.0426 50.67ZM51.8174 15.4221L61.9072 21.2473C62.1372 21.3801 62.2689 21.6082 62.2689 21.8739V42.1261C62.2689 42.3918 62.1372 42.6199 61.9072 42.7527L44.3617 52.8825C44.1316 53.0153 43.8684 53.0153 43.6383 52.8825L26.0928 42.7527C25.8628 42.6199 25.7311 42.3918 25.7311 42.1261V21.8739C25.7311 21.6082 25.8628 21.3801 26.0928 21.2473L40.4098 12.9814L42.0298 7.74172C42.1002 7.51336 42.2171 7.31121 42.3754 7.14011C42.5327 6.9701 42.7249 6.83864 42.9474 6.75043V6.74729C43.1695 6.65933 43.3992 6.62356 43.6296 6.63963C43.8601 6.6557 44.0839 6.72373 44.2944 6.84311L51.8577 11.138C52.1776 11.3198 52.4122 11.598 52.5399 11.9206H52.5429C52.6697 12.241 52.6889 12.6038 52.5795 12.9572L51.8174 15.4221ZM39.7838 15.0067L28.9823 21.2428C28.7522 21.3756 28.6205 21.6038 28.6205 21.8695C28.6205 22.135 28.7522 22.3632 28.9823 22.496L43.6383 30.9576C43.8684 31.0905 44.1316 31.0905 44.3617 30.9576L59.0177 22.496C59.2478 22.3632 59.3795 22.135 59.3795 21.8695C59.3795 21.6038 59.2478 21.3756 59.0177 21.2428L52.4137 17.4299L51.381 16.8336L49.5 22.9167C49.4281 23.1491 49.3112 23.3528 49.1535 23.5224C48.9958 23.6923 48.802 23.8238 48.5766 23.9122C48.3514 24.0004 48.1201 24.0358 47.89 24.0185C47.6599 24.0014 47.4358 23.9313 47.2244 23.8094L39.6802 19.4537C39.3627 19.2704 39.1308 18.9925 39.0049 18.6713C38.8796 18.3515 38.8611 17.9907 38.9694 17.6404L39.7838 15.0067ZM49.9951 16.0336L50.1482 15.5385L51.088 12.4989L51.0882 12.4954L51.0876 12.4951L43.5246 8.2004L43.5221 8.20209L43.5213 8.20004L40.4597 18.1028C40.4602 18.1041 40.4602 18.1015 40.4626 18.1028L48.0066 22.4585L48.0089 22.4572L49.9951 16.0336ZM43.5251 8.19883L43.5254 8.19822C43.5242 8.19822 43.5245 8.19846 43.5246 8.19895L43.5251 8.19883ZM48.0106 22.4589L48.0099 22.4587C48.0097 22.4596 48.0096 22.46 48.0106 22.4589ZM48.0106 22.4589C48.0116 22.4578 48.0109 22.4584 48.0099 22.4587L48.0106 22.4589ZM48.0061 22.46C48.005 22.4598 48.0055 22.4597 48.0061 22.46V22.46ZM48.0061 22.4597C48.007 22.46 48.0069 22.4597 48.0068 22.4595L48.0061 22.4597ZM43.5183 8.1975C43.5164 8.19967 43.5177 8.19871 43.5192 8.19822C43.5193 8.19713 43.5198 8.19593 43.5183 8.1975ZM43.5257 8.19822L43.5251 8.19883C43.5263 8.19846 43.5275 8.19834 43.5257 8.19822ZM42.9146 32.2069L28.2636 23.7481C28.0335 23.6152 27.7702 23.6153 27.54 23.7481C27.31 23.8809 27.1783 24.1089 27.1783 24.3746V41.298C27.1783 41.5637 27.31 41.7917 27.54 41.9245L42.1912 50.3834C42.4213 50.5162 42.6846 50.5162 42.9146 50.3833C43.1447 50.2505 43.2764 50.0223 43.2764 49.7568V32.8335C43.2764 32.5679 43.1447 32.3397 42.9146 32.2069ZM59.7364 23.7481L45.0854 32.2069C44.8553 32.3397 44.7236 32.5679 44.7236 32.8335V49.7568C44.7236 50.0223 44.8553 50.2505 45.0854 50.3833C45.3154 50.5162 45.5787 50.5162 45.8088 50.3834L60.46 41.9245C60.69 41.7917 60.8217 41.5636 60.8217 41.298V24.3746C60.8217 24.1089 60.69 23.8809 60.46 23.7481C60.2298 23.6153 59.9665 23.6152 59.7364 23.7481ZM72.5713 53.373L70.9484 51.7825C70.3361 51.1823 69.9679 50.4246 69.8602 49.6295C69.7527 48.8349 69.9062 48.007 70.3367 47.2657C71.6601 44.9876 72.6969 42.5206 73.3968 39.9145C74.074 37.3934 74.4351 34.7402 74.4351 32C74.4351 27.8729 73.6161 23.9412 72.1321 20.3587C70.5916 16.6398 68.33 13.2889 65.5206 10.4795C62.711 7.67007 59.3603 5.40849 55.6412 3.8679C52.0587 2.38398 48.1272 1.56487 44.0001 1.56487C39.8729 1.56487 35.9413 2.38398 32.3588 3.8679C28.6397 5.40849 25.289 7.67007 22.4794 10.4795C19.67 13.2889 17.4084 16.6398 15.8679 20.3587C14.3839 23.9412 13.5649 27.8729 13.5649 32C13.5649 36.1271 14.3839 40.0588 15.8679 43.6413C17.4084 47.3602 19.67 50.7111 22.4794 53.5205C25.289 56.3299 28.6397 58.5915 32.3588 60.1321C35.9413 61.616 39.8729 62.4351 44.0001 62.4351C46.7387 62.4351 49.3904 62.0743 51.9102 61.3979C54.5152 60.6987 56.981 59.6632 59.2582 58.3413C59.9897 57.9165 60.8023 57.7601 61.5831 57.8578C62.3666 57.9559 63.1176 58.309 63.7231 58.9023L65.4668 60.6113C65.8895 61.0255 66.4428 61.2295 66.9944 61.2244C67.5445 61.2193 68.0935 61.005 68.5089 60.5824L72.6004 56.4225C72.811 56.2083 72.9674 55.9749 73.0688 55.7241C73.1717 55.4691 73.2221 55.1912 73.2193 54.8913C73.2167 54.5932 73.1614 54.3175 73.0542 54.0657C72.9476 53.8151 72.7864 53.5838 72.5713 53.373Z" fill="#1A1A1A"/>
<path fill-rule="evenodd" clip-rule="evenodd" d="M28.9823 22.4959L43.6382 30.9577C43.8684 31.0905 44.1317 31.0905 44.3618 30.9577L59.0178 22.4959C59.2478 22.3631 59.3795 22.135 59.3795 21.8694C59.3795 21.6037 59.2478 21.3756 59.0178 21.2428L52.4138 17.4299L51.3809 16.8337L49.5001 22.9167C49.4282 23.149 49.3112 23.3526 49.1536 23.5224C48.9958 23.6922 48.802 23.8239 48.5767 23.9122C48.3514 24.0005 48.1202 24.0358 47.89 24.0185C47.6599 24.0014 47.4358 23.9314 47.2244 23.8094L39.6803 19.4537C39.3627 19.2704 39.131 18.9925 39.0049 18.6713C38.8796 18.3515 38.8612 17.9908 38.9694 17.6404L39.7837 15.0066L28.9823 21.2428C28.7522 21.3756 28.6205 21.6037 28.6205 21.8694C28.6205 22.135 28.7522 22.3631 28.9823 22.4959ZM51.0876 12.495L43.5246 8.20037L43.5221 8.20206L43.5214 8.20001L41.7718 13.8587L40.4597 18.1028C40.4602 18.1041 40.4602 18.1015 40.4626 18.1029L48.0066 22.4584L48.0089 22.4571L51.088 12.4988L51.0882 12.4954L51.0876 12.495ZM43.5251 8.1988L43.5255 8.1982C43.5243 8.1982 43.5244 8.19844 43.5246 8.1988H43.5251ZM48.0061 22.4599C48.005 22.4598 48.0056 22.4597 48.0061 22.4599V22.4599ZM48.0062 22.4597C48.0071 22.4599 48.0069 22.4597 48.0067 22.4594L48.0062 22.4597ZM43.5183 8.19759C43.5164 8.19965 43.5177 8.19868 43.5192 8.19808C43.5193 8.19711 43.5198 8.1959 43.5183 8.19759ZM43.5257 8.1982L43.5251 8.1988C43.5263 8.19844 43.5276 8.19832 43.5257 8.1982ZM48.0106 22.4588C48.0117 22.4578 48.0109 22.4582 48.0101 22.4587C48.0097 22.4596 48.0096 22.4599 48.0106 22.4588ZM48.0061 22.4599C48.005 22.4598 48.0056 22.4597 48.0061 22.4599V22.4599ZM48.0062 22.4597C48.0071 22.4599 48.0069 22.4597 48.0067 22.4594L48.0062 22.4597ZM42.9147 32.2068L28.2636 23.748C28.0335 23.6152 27.7701 23.6152 27.54 23.748C27.31 23.8809 27.1783 24.1089 27.1783 24.3746V41.298C27.1783 41.5636 27.31 41.7917 27.54 41.9245L42.1911 50.3834C42.4213 50.5161 42.6846 50.5161 42.9147 50.3832C43.1447 50.2504 43.2764 50.0223 43.2764 49.7566V32.8335C43.2764 32.5679 43.1447 32.3397 42.9147 32.2068ZM59.7365 23.748L45.0854 32.2068C44.8553 32.3397 44.7236 32.5679 44.7236 32.8335V49.7566C44.7236 50.0223 44.8553 50.2504 45.0854 50.3832C45.3154 50.5161 45.5787 50.5161 45.8089 50.3834L60.46 41.9245C60.6901 41.7917 60.8218 41.5636 60.8218 41.298V24.3746C60.8218 24.1089 60.6901 23.8809 60.46 23.748C60.2299 23.6152 59.9665 23.6152 59.7365 23.748Z" fill="white"/>
<path d="M14.625 100.062L18.9375 104.312C19.7188 105.094 20.4062 105.604 21 105.844C21.6042 106.094 22.4219 106.224 23.4531 106.234V106.812C22.5052 107.073 21.474 107.203 20.3594 107.203C18.8281 107.203 17.474 106.943 16.2969 106.422C15.1302 105.901 13.9427 105.031 12.7344 103.812L10.2344 101.281C9.71354 100.75 8.88542 100.271 7.75 99.8438C6.28125 99.2917 5.09375 98.5833 4.1875 97.7188C3.29167 96.8542 2.58854 95.7969 2.07812 94.5469C1.56771 93.2865 1.3125 91.9792 1.3125 90.625C1.3125 87.7708 2.26562 85.4219 4.17188 83.5781C6.08854 81.724 8.52604 80.7969 11.4844 80.7969C14.4531 80.7969 16.8958 81.724 18.8125 83.5781C20.7396 85.4219 21.7031 87.7708 21.7031 90.625C21.7031 92.8854 21.0729 94.8646 19.8125 96.5625C18.5521 98.2604 16.8229 99.4271 14.625 100.062ZM17.2188 90.625C17.2188 87.8438 16.7188 85.6875 15.7188 84.1562C14.7188 82.625 13.3073 81.8594 11.4844 81.8594C9.64062 81.8594 8.22917 82.6354 7.25 84.1875C6.28125 85.7292 5.79688 87.9479 5.79688 90.8438C5.79688 93.5521 6.28646 95.6615 7.26562 97.1719C8.24479 98.6719 9.65104 99.4219 11.4844 99.4219C13.3073 99.4219 14.7188 98.6562 15.7188 97.125C16.7188 95.5938 17.2188 93.4271 17.2188 90.625ZM29.3981 87.4531H29.945V97.4062C29.945 98.6146 30.596 99.2969 31.8981 99.4531V100H24.3044V99.4531C25.1169 99.2969 25.6533 99.0677 25.9137 98.7656C26.1846 98.4635 26.32 97.9271 26.32 97.1562V90.7188C26.32 89.9792 26.1794 89.4635 25.8981 89.1719C25.6169 88.8802 25.0335 88.651 24.1481 88.4844V87.9375L29.3981 87.4531ZM26.0387 82.0469C26.0387 81.474 26.2419 80.9844 26.6481 80.5781C27.0648 80.1719 27.5648 79.9688 28.1481 79.9688C28.721 79.9688 29.2106 80.1719 29.6169 80.5781C30.0231 80.974 30.2262 81.4635 30.2262 82.0469C30.2262 82.6302 30.0231 83.1302 29.6169 83.5469C29.2106 83.9531 28.721 84.1562 28.1481 84.1562C27.5648 84.1562 27.0648 83.9479 26.6481 83.5312C26.2419 83.1146 26.0387 82.6198 26.0387 82.0469ZM43.39 97.9844L43.765 98.3438C42.9212 99.7708 41.6296 100.484 39.89 100.484C38.5983 100.484 37.5931 100.151 36.8744 99.4844C36.1556 98.8177 35.7962 97.8698 35.7962 96.6406V88.8906H33.6244V88.2812C35.239 87.2917 36.9681 85.6198 38.8119 83.2656H39.4212V87.9375H43.39V88.8906H39.4212V95.8438C39.4212 96.9375 39.5931 97.7292 39.9369 98.2188C40.291 98.6979 40.8535 98.9375 41.6244 98.9375C42.2598 98.9375 42.8483 98.6198 43.39 97.9844ZM48.5225 100.484C47.5225 100.484 46.6683 100.177 45.96 99.5625C45.2621 98.9375 44.9131 98.1875 44.9131 97.3125C44.9131 96.4375 45.2621 95.7135 45.96 95.1406C46.6579 94.5573 48.1162 93.974 50.335 93.3906C51.4079 93.1094 52.1787 92.8802 52.6475 92.7031C52.6475 91.5885 52.4079 90.7812 51.9287 90.2812C51.4496 89.7812 50.6892 89.5312 49.6475 89.5312C48.0121 89.5312 46.8037 90.2031 46.0225 91.5469H45.5537C45.8767 90.2448 46.5069 89.2396 47.4444 88.5312C48.3923 87.8125 49.5642 87.4531 50.96 87.4531C52.5746 87.4531 53.861 87.849 54.8194 88.6406C55.7881 89.4323 56.2725 90.5417 56.2725 91.9688V97.6562C56.2725 98.7292 56.5173 99.2656 57.0069 99.2656C57.5173 99.2656 57.835 98.8906 57.96 98.1406H58.4756C58.4131 98.8906 58.1267 99.4688 57.6162 99.875C57.1058 100.281 56.4131 100.484 55.5381 100.484C54.7985 100.484 54.1996 100.349 53.7412 100.078C53.2933 99.8177 52.9183 99.3854 52.6162 98.7812L52.335 99.0469C51.2517 100.005 49.9808 100.484 48.5225 100.484ZM52.6162 97.9219V93.3438C51.0225 94.0208 49.9652 94.6042 49.4444 95.0938C48.934 95.5833 48.6787 96.2135 48.6787 96.9844C48.6787 97.6406 48.8298 98.1719 49.1319 98.5781C49.4444 98.974 49.8506 99.1719 50.3506 99.1719C51.0277 99.1719 51.7829 98.7552 52.6162 97.9219ZM65.7175 87.4531V91.2969H65.78C66.9258 88.7344 68.2592 87.4531 69.78 87.4531C70.6133 87.4531 71.3269 87.7969 71.9206 88.4844L71.1237 92.125C70.03 91.0833 69.1237 90.5625 68.405 90.5625C67.8737 90.5625 67.4102 90.6875 67.0144 90.9375C66.6185 91.1875 66.1862 91.6354 65.7175 92.2812V97.2188C65.7175 97.9896 65.8529 98.5156 66.1237 98.7969C66.3946 99.0781 66.9415 99.2969 67.7644 99.4531V100H60.0769V99.4531C60.8685 99.2656 61.3998 99.0208 61.6706 98.7188C61.9519 98.4167 62.0925 97.9167 62.0925 97.2188V90.8438C62.0925 90.0833 61.9154 89.5156 61.5612 89.1406C61.2175 88.7656 60.6602 88.5469 59.8894 88.4844V87.9375L65.1706 87.4531H65.7175ZM76.8187 100.484C75.8187 100.484 74.9646 100.177 74.2562 99.5625C73.5583 98.9375 73.2094 98.1875 73.2094 97.3125C73.2094 96.4375 73.5583 95.7135 74.2562 95.1406C74.9542 94.5573 76.4125 93.974 78.6312 93.3906C79.7042 93.1094 80.475 92.8802 80.9437 92.7031C80.9437 91.5885 80.7042 90.7812 80.225 90.2812C79.7458 89.7812 78.9854 89.5312 77.9437 89.5312C76.3083 89.5312 75.1 90.2031 74.3187 91.5469H73.85C74.1729 90.2448 74.8031 89.2396 75.7406 88.5312C76.6885 87.8125 77.8604 87.4531 79.2562 87.4531C80.8708 87.4531 82.1573 87.849 83.1156 88.6406C84.0844 89.4323 84.5687 90.5417 84.5687 91.9688V97.6562C84.5687 98.7292 84.8135 99.2656 85.3031 99.2656C85.8135 99.2656 86.1312 98.8906 86.2562 98.1406H86.7719C86.7094 98.8906 86.4229 99.4688 85.9125 99.875C85.4021 100.281 84.7094 100.484 83.8344 100.484C83.0948 100.484 82.4958 100.349 82.0375 100.078C81.5896 99.8177 81.2146 99.3854 80.9125 98.7812L80.6312 99.0469C79.5479 100.005 78.2771 100.484 76.8187 100.484ZM80.9125 97.9219V93.3438C79.3187 94.0208 78.2615 94.6042 77.7406 95.0938C77.2302 95.5833 76.975 96.2135 76.975 96.9844C76.975 97.6406 77.126 98.1719 77.4281 98.5781C77.7406 98.974 78.1469 99.1719 78.6469 99.1719C79.324 99.1719 80.0792 98.7552 80.9125 97.9219Z" fill="#213037"/>
</svg>
