<svg width="89" height="27" viewBox="0 0 89 27" fill="none" xmlns="http://www.w3.org/2000/svg">
<path d="M25.5535 22.5167L24.8688 21.8457C24.6105 21.5925 24.4552 21.2729 24.4098 20.9375C24.3644 20.6022 24.4291 20.253 24.6108 19.9402C25.1691 18.9791 25.6065 17.9384 25.9018 16.8389C26.1874 15.7753 26.3398 14.656 26.3398 13.5C26.3398 11.7589 25.9943 10.1002 25.3682 8.58884C24.7183 7.01992 23.7642 5.60627 22.579 4.42104C21.3937 3.23582 19.9801 2.28171 18.4111 1.63178C16.8998 1.00575 15.2411 0.660187 13.5 0.660187C11.7588 0.660187 10.1002 1.00575 8.58882 1.63178C7.01985 2.28171 5.60625 3.23582 4.42097 4.42104C3.23574 5.60627 2.28163 7.01992 1.63175 8.58884C1.00567 10.1002 0.660156 11.7589 0.660156 13.5C0.660156 15.2411 1.00567 16.8998 1.63175 18.4112C2.28163 19.9801 3.23574 21.3937 4.42097 22.579C5.60625 23.7642 7.01985 24.7183 8.58882 25.3682C10.1002 25.9943 11.7588 26.3398 13.5 26.3398C14.6554 26.3398 15.7741 26.1876 16.8371 25.9023C17.9361 25.6073 18.9763 25.1704 19.937 24.6127C20.2456 24.4335 20.5884 24.3675 20.9178 24.4088C21.2484 24.4502 21.5652 24.5991 21.8207 24.8494L22.5563 25.5704C22.7346 25.7451 22.968 25.8312 23.2007 25.8291C23.4328 25.8269 23.6644 25.7365 23.8397 25.5582L25.5658 23.8032C25.6546 23.7129 25.7206 23.6144 25.7634 23.5086C25.8068 23.401 25.8281 23.2838 25.8269 23.1573C25.8258 23.0315 25.8025 22.9152 25.7572 22.809C25.7122 22.7032 25.6442 22.6057 25.5535 22.5167ZM16.798 6.50619L21.0546 8.96371C21.1516 9.01973 21.2072 9.11597 21.2072 9.22807V17.7719C21.2072 17.884 21.1516 17.9803 21.0546 18.0363L13.6526 22.3098C13.5555 22.3658 13.4444 22.3658 13.3474 22.3098L5.94539 18.0363C5.84833 17.9803 5.79277 17.884 5.79277 17.7719V9.22807C5.79277 9.11597 5.84833 9.01973 5.94539 8.96371L11.9854 5.47654L12.6688 3.26605C12.6985 3.1697 12.7478 3.08442 12.8146 3.01224C12.881 2.94052 12.9621 2.88506 13.0559 2.84784V2.84652C13.1496 2.80941 13.2465 2.79432 13.3437 2.8011C13.441 2.80788 13.5354 2.83658 13.6242 2.88694L16.8149 4.69886C16.9499 4.77553 17.0489 4.89292 17.1027 5.02903H17.104C17.1575 5.16416 17.1656 5.31724 17.1195 5.46634L16.798 6.50619ZM11.7213 6.33094L11.7212 6.33099L11.3777 7.44205L11.7213 6.33094ZM16.0291 6.76418L16.0937 6.55533L16.4902 5.27299L15.1912 9.47413L16.0291 6.76418ZM15.19 9.4753C15.1896 9.47525 15.1898 9.4752 15.19 9.4753V9.4753ZM15.19 9.4752C15.1904 9.4753 15.1904 9.4752 15.1903 9.47509L15.19 9.4752Z" fill="#F16F70"/>
<path d="M25.3305 21.3764L26.0151 22.0474C26.1681 22.1973 26.2843 22.3655 26.3632 22.5511C26.442 22.7361 26.4825 22.9367 26.4845 23.1521C26.4864 23.3668 26.4497 23.5676 26.3745 23.7536C26.2988 23.9412 26.1855 24.1119 26.0351 24.2648L24.3091 26.0198C24.0069 26.327 23.6072 26.483 23.2059 26.4866C22.8052 26.4903 22.4028 26.3416 22.0947 26.0397L21.3591 25.3187C21.2112 25.1738 21.0283 25.0876 20.8379 25.0638C20.6464 25.0398 20.4469 25.0782 20.2671 25.1826C19.2558 25.7697 18.1618 26.2293 17.0074 26.5392C15.8879 26.8397 14.712 27 13.5 27C11.6736 27 9.93032 26.6361 8.33871 25.9768C6.68461 25.2916 5.19756 24.2891 3.95427 23.0457C2.71092 21.8024 1.70834 20.3153 1.02318 18.6613C0.363863 17.0697 0 15.3263 0 13.5C0 11.6737 0.363863 9.9303 1.02318 8.33875C1.70834 6.68465 2.71092 5.1976 3.95427 3.95426C5.19756 2.71092 6.68461 1.70839 8.33871 1.02318C9.93032 0.363913 11.6736 0 13.5 0C15.3264 0 17.0697 0.363913 18.6613 1.02318C20.3154 1.70839 21.8024 2.71092 23.0457 3.95426C24.2891 5.1976 25.2917 6.68465 25.9768 8.33875C26.6361 9.9303 27 11.6737 27 13.5C27 14.7127 26.8395 15.8891 26.5387 17.0091C26.2285 18.1642 25.7684 19.2586 25.1807 20.2703C25.0743 20.4535 25.036 20.6565 25.0622 20.8498C25.0883 21.0428 25.1791 21.228 25.3305 21.3764ZM16.798 6.50618L21.0546 8.96371C21.1516 9.01973 21.2072 9.11597 21.2072 9.22806V17.7719C21.2072 17.884 21.1516 17.9803 21.0546 18.0363L13.6526 22.3098C13.5555 22.3658 13.4445 22.3658 13.3474 22.3098L5.94542 18.0363C5.84836 17.9803 5.7928 17.884 5.7928 17.7719V9.22806C5.7928 9.11597 5.84836 9.01973 5.94542 8.96371L11.9854 5.47653L12.6688 3.26604C12.6985 3.1697 12.7478 3.08441 12.8146 3.01223C12.881 2.94051 12.9621 2.88505 13.0559 2.84784V2.84651C13.1496 2.8094 13.2465 2.79431 13.3437 2.80109C13.441 2.80787 13.5354 2.83657 13.6242 2.88694L16.815 4.69885C16.9499 4.77552 17.0489 4.89292 17.1028 5.02902H17.104C17.1575 5.16416 17.1656 5.31724 17.1195 5.46634L16.798 6.50618ZM11.7213 6.33093L7.16439 8.96182C7.06733 9.01784 7.01177 9.11408 7.01177 9.22618C7.01177 9.33822 7.06733 9.43446 7.16439 9.49048L13.3474 13.0602C13.4445 13.1163 13.5555 13.1163 13.6526 13.0602L19.8356 9.49048C19.9327 9.43446 19.9882 9.33822 19.9882 9.22618C19.9882 9.11408 19.9327 9.01784 19.8356 8.96182L17.0495 7.35324L16.6139 7.10168L15.8203 9.66798C15.79 9.76601 15.7407 9.85195 15.6741 9.92352C15.6076 9.99519 15.5258 10.0507 15.4308 10.088C15.3358 10.1252 15.2382 10.1401 15.1411 10.1328C15.044 10.1256 14.9495 10.096 14.8603 10.0446L11.6776 8.20703C11.5436 8.1297 11.4458 8.01245 11.3927 7.87696C11.3398 7.74203 11.332 7.58982 11.3777 7.44204L11.7213 6.33093ZM16.0292 6.76417L16.0938 6.55533L16.4902 5.27299L16.4903 5.27151L16.4901 5.27136L13.2994 3.45954L13.2984 3.46026L13.2981 3.45939L12.0064 7.63712C12.0066 7.63768 12.0066 7.63656 12.0077 7.63712L15.1903 9.47468L15.1912 9.47412L16.0292 6.76417ZM13.2996 3.45888L13.2998 3.45862C13.2993 3.45862 13.2994 3.45873 13.2994 3.45893L13.2996 3.45888ZM15.192 9.47483L15.1917 9.47478C15.1916 9.47514 15.1915 9.47529 15.192 9.47483ZM15.192 9.47483C15.1924 9.47438 15.1921 9.47463 15.1917 9.47478L15.192 9.47483ZM15.1901 9.47529C15.1896 9.47524 15.1898 9.47519 15.1901 9.47529V9.47529ZM15.1901 9.47519C15.1905 9.47529 15.1904 9.47519 15.1904 9.47509L15.1901 9.47519ZM13.2968 3.45832C13.296 3.45924 13.2965 3.45883 13.2971 3.45862C13.2972 3.45817 13.2974 3.45766 13.2968 3.45832ZM13.2999 3.45862L13.2996 3.45888C13.3002 3.45873 13.3007 3.45868 13.2999 3.45862ZM13.0421 13.5873L6.86119 10.0187C6.76413 9.96267 6.65306 9.96272 6.55595 10.0187C6.45889 10.0748 6.40333 10.171 6.40333 10.283V17.4226C6.40333 17.5347 6.45889 17.6309 6.55595 17.6869L12.7369 21.2555C12.834 21.3115 12.9451 21.3115 13.0421 21.2554C13.1392 21.1994 13.1947 21.1032 13.1947 20.9911V13.8516C13.1947 13.7396 13.1392 13.6433 13.0421 13.5873ZM20.1388 10.0187L13.9579 13.5873C13.8608 13.6433 13.8053 13.7396 13.8053 13.8516V20.9911C13.8053 21.1032 13.8608 21.1994 13.9579 21.2554C14.0549 21.3115 14.166 21.3115 14.2631 21.2555L20.4441 17.6869C20.5411 17.6309 20.5967 17.5346 20.5967 17.4226V10.283C20.5967 10.171 20.5411 10.0748 20.4441 10.0187C20.3469 9.96272 20.2359 9.96267 20.1388 10.0187ZM25.5535 22.5167L24.8689 21.8457C24.6105 21.5925 24.4552 21.2729 24.4098 20.9375C24.3644 20.6022 24.4292 20.253 24.6108 19.9402C25.1691 18.9791 25.6065 17.9384 25.9018 16.8389C26.1875 15.7753 26.3398 14.656 26.3398 13.5C26.3398 11.7589 25.9943 10.1002 25.3682 8.58883C24.7183 7.01991 23.7642 5.60627 22.579 4.42104C21.3937 3.23581 19.9801 2.28171 18.4111 1.63177C16.8998 1.00574 15.2411 0.660181 13.5 0.660181C11.7589 0.660181 10.1002 1.00574 8.58885 1.63177C7.01988 2.28171 5.60628 3.23581 4.421 4.42104C3.23577 5.60627 2.28166 7.01991 1.63177 8.58883C1.00569 10.1002 0.660183 11.7589 0.660183 13.5C0.660183 15.2411 1.00569 16.8998 1.63177 18.4112C2.28166 19.9801 3.23577 21.3937 4.421 22.579C5.60628 23.7642 7.01988 24.7183 8.58885 25.3682C10.1002 25.9943 11.7589 26.3398 13.5 26.3398C14.6554 26.3398 15.7741 26.1876 16.8371 25.9022C17.9361 25.6073 18.9764 25.1704 19.937 24.6127C20.2457 24.4335 20.5885 24.3675 20.9179 24.4088C21.2484 24.4502 21.5653 24.5991 21.8207 24.8494L22.5563 25.5704C22.7346 25.7451 22.968 25.8312 23.2008 25.829C23.4328 25.8269 23.6644 25.7365 23.8397 25.5582L25.5658 23.8032C25.6547 23.7129 25.7206 23.6144 25.7634 23.5086C25.8068 23.401 25.8281 23.2838 25.8269 23.1573C25.8258 23.0315 25.8025 22.9152 25.7572 22.809C25.7123 22.7032 25.6443 22.6057 25.5535 22.5167Z" fill="#1A1A1A"/>
<path fill-rule="evenodd" clip-rule="evenodd" d="M7.16438 9.49048L13.3473 13.0603C13.4445 13.1163 13.5555 13.1163 13.6526 13.0603L19.8356 9.49048C19.9327 9.43446 19.9882 9.33822 19.9882 9.22617C19.9882 9.11408 19.9327 9.01784 19.8356 8.96181L17.0495 7.35324L16.6138 7.10172L15.8203 9.66797C15.79 9.766 15.7406 9.85189 15.6742 9.92351C15.6076 9.99513 15.5258 10.0507 15.4308 10.088C15.3357 10.1252 15.2382 10.1401 15.1411 10.1328C15.044 10.1256 14.9495 10.0961 14.8603 10.0446L11.6776 8.20702C11.5436 8.12969 11.4459 8.01245 11.3927 7.87696C11.3398 7.74203 11.332 7.58986 11.3777 7.44204L11.7212 6.33093L7.16438 8.96181C7.06733 9.01784 7.01176 9.11408 7.01176 9.22617C7.01176 9.33822 7.06733 9.43446 7.16438 9.49048ZM16.4901 5.27135L13.2994 3.45954L13.2984 3.46025L13.2981 3.45938L12.56 5.84666L12.0064 7.63712C12.0066 7.63768 12.0066 7.63656 12.0077 7.63717L15.1903 9.47463L15.1912 9.47412L16.4902 5.27293L16.4903 5.27151L16.4901 5.27135ZM13.2996 3.45887L13.2998 3.45862C13.2993 3.45862 13.2993 3.45872 13.2994 3.45887H13.2996ZM15.1901 9.47529C15.1896 9.47524 15.1899 9.47519 15.1901 9.47529V9.47529ZM15.1901 9.47519C15.1905 9.47529 15.1904 9.47519 15.1903 9.47508L15.1901 9.47519ZM13.2968 3.45836C13.296 3.45923 13.2965 3.45882 13.2971 3.45857C13.2972 3.45816 13.2974 3.45765 13.2968 3.45836ZM13.2999 3.45862L13.2996 3.45887C13.3001 3.45872 13.3007 3.45867 13.2999 3.45862ZM15.1919 9.47483C15.1924 9.47437 15.1921 9.47457 15.1917 9.47478C15.1916 9.47514 15.1915 9.47529 15.1919 9.47483ZM15.1901 9.47529C15.1896 9.47524 15.1899 9.47519 15.1901 9.47529V9.47529ZM15.1901 9.47519C15.1905 9.47529 15.1904 9.47519 15.1903 9.47508L15.1901 9.47519ZM13.0421 13.5873L6.86118 10.0187C6.76412 9.96266 6.653 9.96266 6.55594 10.0187C6.45888 10.0748 6.40332 10.1709 6.40332 10.283V17.4226C6.40332 17.5346 6.45888 17.6309 6.55594 17.6869L12.7369 21.2555C12.834 21.3115 12.945 21.3115 13.0421 21.2554C13.1392 21.1994 13.1947 21.1032 13.1947 20.9911V13.8516C13.1947 13.7396 13.1392 13.6433 13.0421 13.5873ZM20.1388 10.0187L13.9579 13.5873C13.8608 13.6433 13.8053 13.7396 13.8053 13.8516V20.9911C13.8053 21.1032 13.8608 21.1994 13.9579 21.2554C14.0549 21.3115 14.166 21.3115 14.2631 21.2555L20.444 17.6869C20.5411 17.6309 20.5967 17.5346 20.5967 17.4226V10.283C20.5967 10.1709 20.5411 10.0748 20.444 10.0187C20.347 9.96266 20.2359 9.96266 20.1388 10.0187Z" fill="white"/>
<path d="M47.2266 18.0352L49.6523 20.4258C50.0918 20.8652 50.4785 21.1523 50.8125 21.2871C51.1523 21.4277 51.6123 21.501 52.1924 21.5068V21.832C51.6592 21.9785 51.0791 22.0518 50.4521 22.0518C49.5908 22.0518 48.8291 21.9053 48.167 21.6123C47.5107 21.3193 46.8428 20.8301 46.1631 20.1445L44.7568 18.7207C44.4639 18.4219 43.998 18.1523 43.3594 17.9121C42.5332 17.6016 41.8652 17.2031 41.3555 16.7168C40.8516 16.2305 40.4561 15.6357 40.1689 14.9326C39.8818 14.2236 39.7383 13.4883 39.7383 12.7266C39.7383 11.1211 40.2744 9.7998 41.3467 8.7627C42.4248 7.71973 43.7959 7.19824 45.46 7.19824C47.1299 7.19824 48.5039 7.71973 49.582 8.7627C50.666 9.7998 51.208 11.1211 51.208 12.7266C51.208 13.998 50.8535 15.1113 50.1445 16.0664C49.4355 17.0215 48.4629 17.6777 47.2266 18.0352ZM48.6855 12.7266C48.6855 11.1621 48.4043 9.94922 47.8418 9.08789C47.2793 8.22656 46.4854 7.7959 45.46 7.7959C44.4229 7.7959 43.6289 8.23242 43.0781 9.10547C42.5332 9.97266 42.2607 11.2207 42.2607 12.8496C42.2607 14.373 42.5361 15.5596 43.0869 16.4092C43.6377 17.2529 44.4287 17.6748 45.46 17.6748C46.4854 17.6748 47.2793 17.2441 47.8418 16.3828C48.4043 15.5215 48.6855 14.3027 48.6855 12.7266ZM55.5364 10.9424H55.8441V16.541C55.8441 17.2207 56.2103 17.6045 56.9427 17.6924V18H52.6712V17.6924C53.1282 17.6045 53.43 17.4756 53.5765 17.3057C53.7288 17.1357 53.805 16.834 53.805 16.4004V12.7793C53.805 12.3633 53.7259 12.0732 53.5677 11.9092C53.4095 11.7451 53.0814 11.6162 52.5833 11.5225V11.2148L55.5364 10.9424ZM53.6468 7.90137C53.6468 7.5791 53.7611 7.30371 53.9896 7.0752C54.2239 6.84668 54.5052 6.73242 54.8333 6.73242C55.1556 6.73242 55.431 6.84668 55.6595 7.0752C55.888 7.29785 56.0023 7.57324 56.0023 7.90137C56.0023 8.22949 55.888 8.51074 55.6595 8.74512C55.431 8.97363 55.1556 9.08789 54.8333 9.08789C54.5052 9.08789 54.2239 8.9707 53.9896 8.73633C53.7611 8.50195 53.6468 8.22363 53.6468 7.90137ZM63.4069 16.8662L63.6178 17.0684C63.1432 17.8711 62.4166 18.2725 61.4381 18.2725C60.7116 18.2725 60.1461 18.085 59.7418 17.71C59.3375 17.335 59.1354 16.8018 59.1354 16.1104V11.751H57.9137V11.4082C58.8219 10.8516 59.7946 9.91113 60.8317 8.58691H61.1745V11.2148H63.4069V11.751H61.1745V15.6621C61.1745 16.2773 61.2711 16.7227 61.4645 16.998C61.6637 17.2676 61.9801 17.4023 62.4137 17.4023C62.7711 17.4023 63.1022 17.2236 63.4069 16.8662ZM66.2939 18.2725C65.7314 18.2725 65.2509 18.0996 64.8525 17.7539C64.4599 17.4023 64.2636 16.9805 64.2636 16.4883C64.2636 15.9961 64.4599 15.5889 64.8525 15.2666C65.2451 14.9385 66.0654 14.6104 67.3134 14.2822C67.917 14.124 68.3505 13.9951 68.6142 13.8955C68.6142 13.2686 68.4795 12.8145 68.2099 12.5332C67.9404 12.252 67.5127 12.1113 66.9267 12.1113C66.0068 12.1113 65.3271 12.4893 64.8877 13.2451H64.624C64.8056 12.5127 65.1601 11.9473 65.6875 11.5488C66.2207 11.1445 66.8798 10.9424 67.665 10.9424C68.5732 10.9424 69.2968 11.165 69.8359 11.6104C70.3808 12.0557 70.6533 12.6797 70.6533 13.4824V16.6816C70.6533 17.2852 70.791 17.5869 71.0664 17.5869C71.3535 17.5869 71.5322 17.376 71.6025 16.9541H71.8925C71.8574 17.376 71.6963 17.7012 71.4091 17.9297C71.122 18.1582 70.7324 18.2725 70.2402 18.2725C69.8242 18.2725 69.4873 18.1963 69.2295 18.0439C68.9775 17.8975 68.7666 17.6543 68.5966 17.3145L68.4384 17.4639C67.8291 18.0029 67.1142 18.2725 66.2939 18.2725ZM68.5966 16.8311V14.2559C67.7002 14.6367 67.1054 14.9648 66.8125 15.2402C66.5254 15.5156 66.3818 15.8701 66.3818 16.3037C66.3818 16.6729 66.4668 16.9717 66.6367 17.2002C66.8125 17.4229 67.041 17.5342 67.3222 17.5342C67.7031 17.5342 68.1279 17.2998 68.5966 16.8311ZM75.9661 10.9424V13.1045H76.0013C76.6458 11.6631 77.3958 10.9424 78.2513 10.9424C78.72 10.9424 79.1214 11.1357 79.4554 11.5225L79.0071 13.5703C78.3919 12.9844 77.8821 12.6914 77.4778 12.6914C77.179 12.6914 76.9182 12.7617 76.6956 12.9023C76.4729 13.043 76.2298 13.2949 75.9661 13.6582V16.4355C75.9661 16.8691 76.0423 17.165 76.1946 17.3232C76.347 17.4814 76.6546 17.6045 77.1175 17.6924V18H72.7932V17.6924C73.2386 17.5869 73.5374 17.4492 73.6897 17.2793C73.8479 17.1094 73.927 16.8281 73.927 16.4355V12.8496C73.927 12.4219 73.8274 12.1025 73.6282 11.8916C73.4348 11.6807 73.1214 11.5576 72.6878 11.5225V11.2148L75.6585 10.9424H75.9661ZM82.2105 18.2725C81.648 18.2725 81.1676 18.0996 80.7691 17.7539C80.3766 17.4023 80.1803 16.9805 80.1803 16.4883C80.1803 15.9961 80.3766 15.5889 80.7691 15.2666C81.1617 14.9385 81.982 14.6104 83.2301 14.2822C83.8336 14.124 84.2672 13.9951 84.5309 13.8955C84.5309 13.2686 84.3961 12.8145 84.1266 12.5332C83.857 12.252 83.4293 12.1113 82.8434 12.1113C81.9234 12.1113 81.2438 12.4893 80.8043 13.2451H80.5406C80.7223 12.5127 81.0768 11.9473 81.6041 11.5488C82.1373 11.1445 82.7965 10.9424 83.5816 10.9424C84.4898 10.9424 85.2135 11.165 85.7525 11.6104C86.2975 12.0557 86.5699 12.6797 86.5699 13.4824V16.6816C86.5699 17.2852 86.7076 17.5869 86.983 17.5869C87.2701 17.5869 87.4488 17.376 87.5191 16.9541H87.8092C87.774 17.376 87.6129 17.7012 87.3258 17.9297C87.0387 18.1582 86.649 18.2725 86.1568 18.2725C85.7408 18.2725 85.4039 18.1963 85.1461 18.0439C84.8941 17.8975 84.6832 17.6543 84.5133 17.3145L84.3551 17.4639C83.7457 18.0029 83.0309 18.2725 82.2105 18.2725ZM84.5133 16.8311V14.2559C83.6168 14.6367 83.0221 14.9648 82.7291 15.2402C82.442 15.5156 82.2984 15.8701 82.2984 16.3037C82.2984 16.6729 82.3834 16.9717 82.5533 17.2002C82.7291 17.4229 82.9576 17.5342 83.2389 17.5342C83.6197 17.5342 84.0445 17.2998 84.5133 16.8311Z" fill="white"/>
</svg>
