<svg width="89" height="28" viewBox="0 0 89 28" fill="none" xmlns="http://www.w3.org/2000/svg">
<path d="M25.5535 23.0167L24.8688 22.3457C24.6105 22.0925 24.4552 21.7728 24.4098 21.4374C24.3644 21.1022 24.4291 20.7529 24.6108 20.4402C25.1691 19.4791 25.6065 18.4383 25.9018 17.3389C26.1874 16.2753 26.3398 15.156 26.3398 14C26.3398 12.2589 25.9943 10.6002 25.3682 9.08881C24.7183 7.51989 23.7642 6.10624 22.579 4.92101C21.3937 3.73579 19.9801 2.78168 18.4111 2.13175C16.8998 1.50572 15.2411 1.16016 13.5 1.16016C11.7588 1.16016 10.1002 1.50572 8.58882 2.13175C7.01985 2.78168 5.60625 3.73579 4.42097 4.92101C3.23574 6.10624 2.28163 7.51989 1.63175 9.08881C1.00567 10.6002 0.660156 12.2589 0.660156 14C0.660156 15.7411 1.00567 17.3998 1.63175 18.9111C2.28163 20.4801 3.23574 21.8937 4.42097 23.0789C5.60625 24.2642 7.01985 25.2183 8.58882 25.8682C10.1002 26.4942 11.7588 26.8398 13.5 26.8398C14.6554 26.8398 15.7741 26.6876 16.8371 26.4022C17.9361 26.1072 18.9763 25.6704 19.937 25.1127C20.2456 24.9335 20.5884 24.8675 20.9178 24.9087C21.2484 24.9501 21.5652 25.0991 21.8207 25.3494L22.5563 26.0704C22.7346 26.2451 22.968 26.3312 23.2007 26.329C23.4328 26.3269 23.6644 26.2364 23.8397 26.0582L25.5658 24.3032C25.6546 24.2128 25.7206 24.1144 25.7634 24.0086C25.8068 23.901 25.8281 23.7838 25.8269 23.6572C25.8258 23.5315 25.8025 23.4152 25.7572 23.3089C25.7122 23.2032 25.6442 23.1056 25.5535 23.0167ZM16.798 7.00616L21.0546 9.46368C21.1516 9.5197 21.2072 9.61594 21.2072 9.72804V18.2719C21.2072 18.384 21.1516 18.4802 21.0546 18.5363L13.6526 22.8098C13.5555 22.8658 13.4444 22.8658 13.3474 22.8098L5.94539 18.5363C5.84833 18.4802 5.79277 18.384 5.79277 18.2719V9.72804C5.79277 9.61594 5.84833 9.5197 5.94539 9.46368L11.9854 5.97651L12.6688 3.76602C12.6985 3.66967 12.7478 3.58439 12.8146 3.51221C12.881 3.44049 12.9621 3.38503 13.0559 3.34781V3.34649C13.1496 3.30938 13.2465 3.29429 13.3437 3.30107C13.441 3.30785 13.5354 3.33655 13.6242 3.38691L16.8149 5.19883C16.9499 5.2755 17.0489 5.39289 17.1027 5.529H17.104C17.1575 5.66413 17.1656 5.81721 17.1195 5.96631L16.798 7.00616ZM11.7213 6.83091L11.7212 6.83096L11.3777 7.94202L11.7213 6.83091ZM16.0291 7.26415L16.0937 7.0553L16.4902 5.77296L15.1912 9.9741L16.0291 7.26415ZM15.19 9.97527C15.1896 9.97522 15.1898 9.97517 15.19 9.97527V9.97527ZM15.19 9.97517C15.1904 9.97527 15.1904 9.97517 15.1903 9.97506L15.19 9.97517Z" fill="#F16F70"/>
<path d="M25.3305 21.8764L26.0151 22.5474C26.1681 22.6973 26.2843 22.8655 26.3632 23.0511C26.442 23.2361 26.4825 23.4367 26.4845 23.6521C26.4864 23.8668 26.4497 24.0676 26.3745 24.2536C26.2988 24.4412 26.1855 24.6119 26.0351 24.7648L24.3091 26.5198C24.0069 26.827 23.6072 26.983 23.2059 26.9866C22.8052 26.9903 22.4028 26.8416 22.0947 26.5397L21.3591 25.8187C21.2112 25.6738 21.0283 25.5876 20.8379 25.5638C20.6464 25.5398 20.4469 25.5782 20.2671 25.6826C19.2558 26.2697 18.1618 26.7293 17.0074 27.0392C15.8879 27.3397 14.712 27.5 13.5 27.5C11.6736 27.5 9.93032 27.1361 8.33871 26.4768C6.68461 25.7916 5.19756 24.7891 3.95427 23.5457C2.71092 22.3024 1.70834 20.8153 1.02318 19.1613C0.363863 17.5697 0 15.8263 0 14C0 12.1737 0.363863 10.4303 1.02318 8.83875C1.70834 7.18465 2.71092 5.6976 3.95427 4.45426C5.19756 3.21092 6.68461 2.20839 8.33871 1.52318C9.93032 0.863913 11.6736 0.5 13.5 0.5C15.3264 0.5 17.0697 0.863913 18.6613 1.52318C20.3154 2.20839 21.8024 3.21092 23.0457 4.45426C24.2891 5.6976 25.2917 7.18465 25.9768 8.83875C26.6361 10.4303 27 12.1737 27 14C27 15.2127 26.8395 16.3891 26.5387 17.5091C26.2285 18.6642 25.7684 19.7586 25.1807 20.7703C25.0743 20.9535 25.036 21.1565 25.0622 21.3498C25.0883 21.5428 25.1791 21.728 25.3305 21.8764ZM16.798 7.00618L21.0546 9.46371C21.1516 9.51973 21.2072 9.61597 21.2072 9.72806V18.2719C21.2072 18.384 21.1516 18.4803 21.0546 18.5363L13.6526 22.8098C13.5555 22.8658 13.4445 22.8658 13.3474 22.8098L5.94542 18.5363C5.84836 18.4803 5.7928 18.384 5.7928 18.2719V9.72806C5.7928 9.61597 5.84836 9.51973 5.94542 9.46371L11.9854 5.97653L12.6688 3.76604C12.6985 3.6697 12.7478 3.58441 12.8146 3.51223C12.881 3.44051 12.9621 3.38505 13.0559 3.34784V3.34651C13.1496 3.3094 13.2465 3.29431 13.3437 3.30109C13.441 3.30787 13.5354 3.33657 13.6242 3.38694L16.815 5.19885C16.9499 5.27552 17.0489 5.39292 17.1028 5.52902H17.104C17.1575 5.66416 17.1656 5.81724 17.1195 5.96634L16.798 7.00618ZM11.7213 6.83093L7.16439 9.46182C7.06733 9.51784 7.01177 9.61408 7.01177 9.72618C7.01177 9.83822 7.06733 9.93446 7.16439 9.99048L13.3474 13.5602C13.4445 13.6163 13.5555 13.6163 13.6526 13.5602L19.8356 9.99048C19.9327 9.93446 19.9882 9.83822 19.9882 9.72618C19.9882 9.61408 19.9327 9.51784 19.8356 9.46182L17.0495 7.85324L16.6139 7.60168L15.8203 10.168C15.79 10.266 15.7407 10.352 15.6741 10.4235C15.6076 10.4952 15.5258 10.5507 15.4308 10.588C15.3358 10.6252 15.2382 10.6401 15.1411 10.6328C15.044 10.6256 14.9495 10.596 14.8603 10.5446L11.6776 8.70703C11.5436 8.6297 11.4458 8.51245 11.3927 8.37696C11.3398 8.24203 11.332 8.08982 11.3777 7.94204L11.7213 6.83093ZM16.0292 7.26417L16.0938 7.05533L16.4902 5.77299L16.4903 5.77151L16.4901 5.77136L13.2994 3.95954L13.2984 3.96026L13.2981 3.95939L12.0064 8.13712C12.0066 8.13768 12.0066 8.13656 12.0077 8.13712L15.1903 9.97468L15.1912 9.97412L16.0292 7.26417ZM13.2996 3.95888L13.2998 3.95862C13.2993 3.95862 13.2994 3.95873 13.2994 3.95893L13.2996 3.95888ZM15.192 9.97483L15.1917 9.97478C15.1916 9.97514 15.1915 9.97529 15.192 9.97483ZM15.192 9.97483C15.1924 9.97438 15.1921 9.97463 15.1917 9.97478L15.192 9.97483ZM15.1901 9.97529C15.1896 9.97524 15.1898 9.97519 15.1901 9.97529V9.97529ZM15.1901 9.97519C15.1905 9.97529 15.1904 9.97519 15.1904 9.97509L15.1901 9.97519ZM13.2968 3.95832C13.296 3.95924 13.2965 3.95883 13.2971 3.95862C13.2972 3.95817 13.2974 3.95766 13.2968 3.95832ZM13.2999 3.95862L13.2996 3.95888C13.3002 3.95873 13.3007 3.95868 13.2999 3.95862ZM13.0421 14.0873L6.86119 10.5187C6.76413 10.4627 6.65306 10.4627 6.55595 10.5187C6.45889 10.5748 6.40333 10.671 6.40333 10.783V17.9226C6.40333 18.0347 6.45889 18.1309 6.55595 18.1869L12.7369 21.7555C12.834 21.8115 12.9451 21.8115 13.0421 21.7554C13.1392 21.6994 13.1947 21.6032 13.1947 21.4911V14.3516C13.1947 14.2396 13.1392 14.1433 13.0421 14.0873ZM20.1388 10.5187L13.9579 14.0873C13.8608 14.1433 13.8053 14.2396 13.8053 14.3516V21.4911C13.8053 21.6032 13.8608 21.6994 13.9579 21.7554C14.0549 21.8115 14.166 21.8115 14.2631 21.7555L20.4441 18.1869C20.5411 18.1309 20.5967 18.0346 20.5967 17.9226V10.783C20.5967 10.671 20.5411 10.5748 20.4441 10.5187C20.3469 10.4627 20.2359 10.4627 20.1388 10.5187ZM25.5535 23.0167L24.8689 22.3457C24.6105 22.0925 24.4552 21.7729 24.4098 21.4375C24.3644 21.1022 24.4292 20.753 24.6108 20.4402C25.1691 19.4791 25.6065 18.4384 25.9018 17.3389C26.1875 16.2753 26.3398 15.156 26.3398 14C26.3398 12.2589 25.9943 10.6002 25.3682 9.08883C24.7183 7.51991 23.7642 6.10627 22.579 4.92104C21.3937 3.73581 19.9801 2.78171 18.4111 2.13177C16.8998 1.50574 15.2411 1.16018 13.5 1.16018C11.7589 1.16018 10.1002 1.50574 8.58885 2.13177C7.01988 2.78171 5.60628 3.73581 4.421 4.92104C3.23577 6.10627 2.28166 7.51991 1.63177 9.08883C1.00569 10.6002 0.660183 12.2589 0.660183 14C0.660183 15.7411 1.00569 17.3998 1.63177 18.9112C2.28166 20.4801 3.23577 21.8937 4.421 23.079C5.60628 24.2642 7.01988 25.2183 8.58885 25.8682C10.1002 26.4943 11.7589 26.8398 13.5 26.8398C14.6554 26.8398 15.7741 26.6876 16.8371 26.4022C17.9361 26.1073 18.9764 25.6704 19.937 25.1127C20.2457 24.9335 20.5885 24.8675 20.9179 24.9088C21.2484 24.9502 21.5653 25.0991 21.8207 25.3494L22.5563 26.0704C22.7346 26.2451 22.968 26.3312 23.2008 26.329C23.4328 26.3269 23.6644 26.2365 23.8397 26.0582L25.5658 24.3032C25.6547 24.2129 25.7206 24.1144 25.7634 24.0086C25.8068 23.901 25.8281 23.7838 25.8269 23.6573C25.8258 23.5315 25.8025 23.4152 25.7572 23.309C25.7123 23.2032 25.6443 23.1057 25.5535 23.0167Z" fill="#1A1A1A"/>
<path fill-rule="evenodd" clip-rule="evenodd" d="M7.16438 9.99048L13.3473 13.5603C13.4445 13.6163 13.5555 13.6163 13.6526 13.5603L19.8356 9.99048C19.9327 9.93446 19.9882 9.83822 19.9882 9.72617C19.9882 9.61408 19.9327 9.51784 19.8356 9.46181L17.0495 7.85324L16.6138 7.60172L15.8203 10.168C15.79 10.266 15.7406 10.3519 15.6742 10.4235C15.6076 10.4951 15.5258 10.5507 15.4308 10.588C15.3357 10.6252 15.2382 10.6401 15.1411 10.6328C15.044 10.6256 14.9495 10.5961 14.8603 10.5446L11.6776 8.70702C11.5436 8.62969 11.4459 8.51245 11.3927 8.37696C11.3398 8.24203 11.332 8.08986 11.3777 7.94204L11.7212 6.83093L7.16438 9.46181C7.06733 9.51784 7.01176 9.61408 7.01176 9.72617C7.01176 9.83822 7.06733 9.93446 7.16438 9.99048ZM16.4901 5.77135L13.2994 3.95954L13.2984 3.96025L13.2981 3.95938L12.56 6.34666L12.0064 8.13712C12.0066 8.13768 12.0066 8.13656 12.0077 8.13717L15.1903 9.97463L15.1912 9.97412L16.4902 5.77293L16.4903 5.77151L16.4901 5.77135ZM13.2996 3.95887L13.2998 3.95862C13.2993 3.95862 13.2993 3.95872 13.2994 3.95887H13.2996ZM15.1901 9.97529C15.1896 9.97524 15.1899 9.97519 15.1901 9.97529V9.97529ZM15.1901 9.97519C15.1905 9.97529 15.1904 9.97519 15.1903 9.97508L15.1901 9.97519ZM13.2968 3.95836C13.296 3.95923 13.2965 3.95882 13.2971 3.95857C13.2972 3.95816 13.2974 3.95765 13.2968 3.95836ZM13.2999 3.95862L13.2996 3.95887C13.3001 3.95872 13.3007 3.95867 13.2999 3.95862ZM15.1919 9.97483C15.1924 9.97437 15.1921 9.97457 15.1917 9.97478C15.1916 9.97514 15.1915 9.97529 15.1919 9.97483ZM15.1901 9.97529C15.1896 9.97524 15.1899 9.97519 15.1901 9.97529V9.97529ZM15.1901 9.97519C15.1905 9.97529 15.1904 9.97519 15.1903 9.97508L15.1901 9.97519ZM13.0421 14.0873L6.86118 10.5187C6.76412 10.4627 6.653 10.4627 6.55594 10.5187C6.45888 10.5748 6.40332 10.6709 6.40332 10.783V17.9226C6.40332 18.0346 6.45888 18.1309 6.55594 18.1869L12.7369 21.7555C12.834 21.8115 12.945 21.8115 13.0421 21.7554C13.1392 21.6994 13.1947 21.6032 13.1947 21.4911V14.3516C13.1947 14.2396 13.1392 14.1433 13.0421 14.0873ZM20.1388 10.5187L13.9579 14.0873C13.8608 14.1433 13.8053 14.2396 13.8053 14.3516V21.4911C13.8053 21.6032 13.8608 21.6994 13.9579 21.7554C14.0549 21.8115 14.166 21.8115 14.2631 21.7555L20.444 18.1869C20.5411 18.1309 20.5967 18.0346 20.5967 17.9226V10.783C20.5967 10.6709 20.5411 10.5748 20.444 10.5187C20.347 10.4627 20.2359 10.4627 20.1388 10.5187Z" fill="white"/>
<path d="M47.2266 18.5352L49.6523 20.9258C50.0918 21.3652 50.4785 21.6523 50.8125 21.7871C51.1523 21.9277 51.6123 22.001 52.1924 22.0068V22.332C51.6592 22.4785 51.0791 22.5518 50.4521 22.5518C49.5908 22.5518 48.8291 22.4053 48.167 22.1123C47.5107 21.8193 46.8428 21.3301 46.1631 20.6445L44.7568 19.2207C44.4639 18.9219 43.998 18.6523 43.3594 18.4121C42.5332 18.1016 41.8652 17.7031 41.3555 17.2168C40.8516 16.7305 40.4561 16.1357 40.1689 15.4326C39.8818 14.7236 39.7383 13.9883 39.7383 13.2266C39.7383 11.6211 40.2744 10.2998 41.3467 9.2627C42.4248 8.21973 43.7959 7.69824 45.46 7.69824C47.1299 7.69824 48.5039 8.21973 49.582 9.2627C50.666 10.2998 51.208 11.6211 51.208 13.2266C51.208 14.498 50.8535 15.6113 50.1445 16.5664C49.4355 17.5215 48.4629 18.1777 47.2266 18.5352ZM48.6855 13.2266C48.6855 11.6621 48.4043 10.4492 47.8418 9.58789C47.2793 8.72656 46.4854 8.2959 45.46 8.2959C44.4229 8.2959 43.6289 8.73242 43.0781 9.60547C42.5332 10.4727 42.2607 11.7207 42.2607 13.3496C42.2607 14.873 42.5361 16.0596 43.0869 16.9092C43.6377 17.7529 44.4287 18.1748 45.46 18.1748C46.4854 18.1748 47.2793 17.7441 47.8418 16.8828C48.4043 16.0215 48.6855 14.8027 48.6855 13.2266ZM55.5364 11.4424H55.8441V17.041C55.8441 17.7207 56.2103 18.1045 56.9427 18.1924V18.5H52.6712V18.1924C53.1282 18.1045 53.43 17.9756 53.5765 17.8057C53.7288 17.6357 53.805 17.334 53.805 16.9004V13.2793C53.805 12.8633 53.7259 12.5732 53.5677 12.4092C53.4095 12.2451 53.0814 12.1162 52.5833 12.0225V11.7148L55.5364 11.4424ZM53.6468 8.40137C53.6468 8.0791 53.7611 7.80371 53.9896 7.5752C54.2239 7.34668 54.5052 7.23242 54.8333 7.23242C55.1556 7.23242 55.431 7.34668 55.6595 7.5752C55.888 7.79785 56.0023 8.07324 56.0023 8.40137C56.0023 8.72949 55.888 9.01074 55.6595 9.24512C55.431 9.47363 55.1556 9.58789 54.8333 9.58789C54.5052 9.58789 54.2239 9.4707 53.9896 9.23633C53.7611 9.00195 53.6468 8.72363 53.6468 8.40137ZM63.4069 17.3662L63.6178 17.5684C63.1432 18.3711 62.4166 18.7725 61.4381 18.7725C60.7116 18.7725 60.1461 18.585 59.7418 18.21C59.3375 17.835 59.1354 17.3018 59.1354 16.6104V12.251H57.9137V11.9082C58.8219 11.3516 59.7946 10.4111 60.8317 9.08691H61.1745V11.7148H63.4069V12.251H61.1745V16.1621C61.1745 16.7773 61.2711 17.2227 61.4645 17.498C61.6637 17.7676 61.9801 17.9023 62.4137 17.9023C62.7711 17.9023 63.1022 17.7236 63.4069 17.3662ZM66.2939 18.7725C65.7314 18.7725 65.2509 18.5996 64.8525 18.2539C64.4599 17.9023 64.2636 17.4805 64.2636 16.9883C64.2636 16.4961 64.4599 16.0889 64.8525 15.7666C65.2451 15.4385 66.0654 15.1104 67.3134 14.7822C67.917 14.624 68.3505 14.4951 68.6142 14.3955C68.6142 13.7686 68.4795 13.3145 68.2099 13.0332C67.9404 12.752 67.5127 12.6113 66.9267 12.6113C66.0068 12.6113 65.3271 12.9893 64.8877 13.7451H64.624C64.8056 13.0127 65.1601 12.4473 65.6875 12.0488C66.2207 11.6445 66.8798 11.4424 67.665 11.4424C68.5732 11.4424 69.2968 11.665 69.8359 12.1104C70.3808 12.5557 70.6533 13.1797 70.6533 13.9824V17.1816C70.6533 17.7852 70.791 18.0869 71.0664 18.0869C71.3535 18.0869 71.5322 17.876 71.6025 17.4541H71.8925C71.8574 17.876 71.6963 18.2012 71.4091 18.4297C71.122 18.6582 70.7324 18.7725 70.2402 18.7725C69.8242 18.7725 69.4873 18.6963 69.2295 18.5439C68.9775 18.3975 68.7666 18.1543 68.5966 17.8145L68.4384 17.9639C67.8291 18.5029 67.1142 18.7725 66.2939 18.7725ZM68.5966 17.3311V14.7559C67.7002 15.1367 67.1054 15.4648 66.8125 15.7402C66.5254 16.0156 66.3818 16.3701 66.3818 16.8037C66.3818 17.1729 66.4668 17.4717 66.6367 17.7002C66.8125 17.9229 67.041 18.0342 67.3222 18.0342C67.7031 18.0342 68.1279 17.7998 68.5966 17.3311ZM75.9661 11.4424V13.6045H76.0013C76.6458 12.1631 77.3958 11.4424 78.2513 11.4424C78.72 11.4424 79.1214 11.6357 79.4554 12.0225L79.0071 14.0703C78.3919 13.4844 77.8821 13.1914 77.4778 13.1914C77.179 13.1914 76.9182 13.2617 76.6956 13.4023C76.4729 13.543 76.2298 13.7949 75.9661 14.1582V16.9355C75.9661 17.3691 76.0423 17.665 76.1946 17.8232C76.347 17.9814 76.6546 18.1045 77.1175 18.1924V18.5H72.7932V18.1924C73.2386 18.0869 73.5374 17.9492 73.6897 17.7793C73.8479 17.6094 73.927 17.3281 73.927 16.9355V13.3496C73.927 12.9219 73.8274 12.6025 73.6282 12.3916C73.4348 12.1807 73.1214 12.0576 72.6878 12.0225V11.7148L75.6585 11.4424H75.9661ZM82.2105 18.7725C81.648 18.7725 81.1676 18.5996 80.7691 18.2539C80.3766 17.9023 80.1803 17.4805 80.1803 16.9883C80.1803 16.4961 80.3766 16.0889 80.7691 15.7666C81.1617 15.4385 81.982 15.1104 83.2301 14.7822C83.8336 14.624 84.2672 14.4951 84.5309 14.3955C84.5309 13.7686 84.3961 13.3145 84.1266 13.0332C83.857 12.752 83.4293 12.6113 82.8434 12.6113C81.9234 12.6113 81.2438 12.9893 80.8043 13.7451H80.5406C80.7223 13.0127 81.0768 12.4473 81.6041 12.0488C82.1373 11.6445 82.7965 11.4424 83.5816 11.4424C84.4898 11.4424 85.2135 11.665 85.7525 12.1104C86.2975 12.5557 86.5699 13.1797 86.5699 13.9824V17.1816C86.5699 17.7852 86.7076 18.0869 86.983 18.0869C87.2701 18.0869 87.4488 17.876 87.5191 17.4541H87.8092C87.774 17.876 87.6129 18.2012 87.3258 18.4297C87.0387 18.6582 86.649 18.7725 86.1568 18.7725C85.7408 18.7725 85.4039 18.6963 85.1461 18.5439C84.8941 18.3975 84.6832 18.1543 84.5133 17.8145L84.3551 17.9639C83.7457 18.5029 83.0309 18.7725 82.2105 18.7725ZM84.5133 17.3311V14.7559C83.6168 15.1367 83.0221 15.4648 82.7291 15.7402C82.442 16.0156 82.2984 16.3701 82.2984 16.8037C82.2984 17.1729 82.3834 17.4717 82.5533 17.7002C82.7291 17.9229 82.9576 18.0342 83.2389 18.0342C83.6197 18.0342 84.0445 17.7998 84.5133 17.3311Z" fill="#213037"/>
</svg>
