<svg width="33" height="32" viewBox="0 0 33 32" fill="none" xmlns="http://www.w3.org/2000/svg">
<rect x="0.25" width="32" height="32" rx="16" fill="#F97316"/>
<path d="M16.25 10.5C16.25 10.26 16.25 10.141 16.33 10.067C16.412 9.993 16.524 10.002 16.75 10.021C17.7574 10.1051 18.7271 10.4424 19.5693 11.0016C20.4115 11.5607 21.0987 12.3235 21.5672 13.2193C22.0358 14.115 22.2704 15.1146 22.2493 16.1253C22.2282 17.1359 21.9521 18.1249 21.4467 19.0003C20.9412 19.8757 20.2228 20.6093 19.358 21.1328C18.4933 21.6564 17.5103 21.9529 16.5003 21.995C15.4903 22.037 14.486 21.8232 13.5807 21.3734C12.6755 20.9236 11.8985 20.2524 11.322 19.422C11.192 19.236 11.128 19.143 11.152 19.036C11.176 18.929 11.28 18.87 11.487 18.75L16 16.144C16.122 16.074 16.183 16.039 16.216 15.981C16.25 15.923 16.25 15.852 16.25 15.711V10.5Z" fill="white"/>
<path fill-rule="evenodd" clip-rule="evenodd" d="M16.25 8C11.8317 8 8.25 11.5817 8.25 16C8.25 20.4183 11.8317 24 16.25 24C20.6683 24 24.25 20.4183 24.25 16C24.25 11.5817 20.6683 8 16.25 8ZM6.25 16C6.25 10.4772 10.7272 6 16.25 6C21.7728 6 26.25 10.4772 26.25 16C26.25 21.5228 21.7728 26 16.25 26C10.7272 26 6.25 21.5228 6.25 16Z" fill="white"/>
</svg>
