<svg width="40" height="40" viewBox="0 0 40 40" fill="none" xmlns="http://www.w3.org/2000/svg">
<rect width="40" height="40" rx="16" fill="#F16F70"/>
<path d="M26.6667 15.4706C26.6667 13.6834 25.92 12.0658 24.7147 10.8959C23.508 9.72471 21.8413 9 20 9C18.1587 9 16.492 9.72471 15.2853 10.8959C14.08 12.0658 13.3333 13.6834 13.3333 15.4706C13.3333 17.2578 14.08 18.8754 15.2853 20.0453C16.492 21.2165 18.1587 21.9412 20 21.9412C21.8413 21.9412 23.508 21.2165 24.7147 20.0453C25.3345 19.4452 25.826 18.7321 26.161 17.947C26.496 17.1619 26.6678 16.3203 26.6667 15.4706ZM12 28.4118C12 29.7059 15 31 20 31C24.6907 31 28 29.7059 28 28.4118C28 25.8235 24.8613 23.2353 20 23.2353C15 23.2353 12 25.8235 12 28.4118Z" fill="white"/>
</svg>
